<?xml version="1.0" encoding="UTF-8"?>
<svg xmlns="http://www.w3.org/2000/svg" width="120.455" height="19.053" viewBox="0 0 120.455 19.053">
  <defs>
    <style>
      .cls-1 {
        fill: #ff9e00;
      }

      .cls-2 {
        fill: #fff;
      }
    </style>
  </defs>
  <g id="SP-Media_logo" data-name="SP-Media logo" transform="translate(-5.32 0)">
    <g id="Warstwa_1" data-name="Warstwa 1" transform="translate(10.32 0)">
      <g id="Layer_3" data-name="Layer 3" transform="translate(-5)">
        <path id="Path_2111" data-name="Path 2111" class="cls-1" d="M21.872,0a9.527,9.527,0,1,0,9.5,9.552A9.527,9.527,0,0,0,21.872,0ZM13.937,9.463a7.909,7.909,0,0,1,6.572-7.769.548.548,0,0,1,.6.56V4.712A3.248,3.248,0,0,0,19.325,4.2a3.4,3.4,0,0,0,0,6.8,4.254,4.254,0,0,0,1.274-.255l3.579-1.1h.344a1.783,1.783,0,1,1-1.8,1.783l-1.146.331a.764.764,0,0,0-.433.726v4.343a.7.7,0,0,0,.255.6h-.255a7.909,7.909,0,0,1-7.209-7.973Zm8.7,7.425V14.341a3.248,3.248,0,0,0,1.783.509,3.4,3.4,0,1,0,0-6.8,5.808,5.808,0,0,0-.8.089L19.962,9.272h0a1.923,1.923,0,0,1-.675.127,1.783,1.783,0,1,1,1.8-1.783l1.2-.331a.637.637,0,0,0,.382-.637V2.216c0-.344,0-.509-.217-.6h.217a7.909,7.909,0,0,1,.382,15.691C22.713,17.4,22.636,17.181,22.636,16.888Z" transform="translate(-12.32 0)"/>
      </g>
      <g id="Layer_1" data-name="Layer 1" transform="translate(24.23 2.417)">
        <path id="Path_2112" data-name="Path 2112" class="cls-2" d="M9.3,26.045a5.218,5.218,0,0,1-.405,1.978,4.956,4.956,0,0,1-1.12,1.43,5.552,5.552,0,0,1-1.668.882,9.174,9.174,0,0,1-2.073.238,7.006,7.006,0,0,1-1.358-.167,4.551,4.551,0,0,1-1.12-.31,8.246,8.246,0,0,1-.786-.31,4.765,4.765,0,0,1-.477-.31,1.739,1.739,0,0,1-.238-.405,2.216,2.216,0,0,1,0-.786v-.548a.715.715,0,0,1,0-.405.272.272,0,0,1,.167-.238c.167-.071,0,0,.167,0a1.334,1.334,0,0,1,.405.167,1.644,1.644,0,0,0,.786.477,4,4,0,0,0,1.025.405,3.955,3.955,0,0,0,1.43.167,4,4,0,0,0,.953-.167,6.313,6.313,0,0,0,.715-.31,3.455,3.455,0,0,0,.477-.548,2.383,2.383,0,0,0,.167-.786,1.191,1.191,0,0,0-.238-.786,2.883,2.883,0,0,0-.715-.643l-.953-.477-1.12-.477a7.959,7.959,0,0,1-1.12-.643,3.193,3.193,0,0,1-.953-.786,5.337,5.337,0,0,1-.691-1.406,4.313,4.313,0,0,1-.238-1.5,4.408,4.408,0,0,1,.405-1.835A3.193,3.193,0,0,1,1.766,16.68a6.743,6.743,0,0,1,1.525-.786,6.791,6.791,0,0,1,1.835-.238,4.885,4.885,0,0,1,1.025,0l.953.238a2.383,2.383,0,0,1,.786.31c.238,0,.405.238.477.238l.167.167v1.6a.715.715,0,0,1,0,.405v.238c0,.071,0,0-.167,0a1.334,1.334,0,0,1-.477.048,4.765,4.765,0,0,0-.762-.357,2.859,2.859,0,0,0-.882-.31,4.766,4.766,0,0,0-1.12-.167,2.383,2.383,0,0,0-.786,0,1.287,1.287,0,0,0-.548.31,1.668,1.668,0,0,0-.31.477.524.524,0,0,0-.405.548,1.334,1.334,0,0,0,.238.786,2.883,2.883,0,0,0,.715.643l.953.477,1.12.477a7.958,7.958,0,0,1,1.12.643,3.193,3.193,0,0,1,.953.786,5.337,5.337,0,0,1,.715,1.12A3.217,3.217,0,0,1,9.3,26.045Z" transform="translate(-0.015 -15.629)"/>
        <path id="Path_2113" data-name="Path 2113" class="cls-2" d="M14.626,20.1a6.076,6.076,0,0,1-.405,2.145,4.432,4.432,0,0,1-1.12,1.6,5.242,5.242,0,0,1-1.763.953,7.744,7.744,0,0,1-2.383.31H7.668V29.8a.272.272,0,0,0-.238.167,2.812,2.812,0,0,1-.477,0H5.047c-.167,0-.167,0-.238-.167a.238.238,0,0,1,0-.167V16.816a1.191,1.191,0,0,1,.238-.786.977.977,0,0,1,.715-.238h4.289a7.411,7.411,0,0,1,1.12.167,4.17,4.17,0,0,1,1.263.477,3.86,3.86,0,0,1,1.12.882,3,3,0,0,1,.715,1.191A2.383,2.383,0,0,1,14.626,20.1Zm-3.026.238a2.645,2.645,0,0,0-.238-1.191,1.882,1.882,0,0,0-.643-.715,3.336,3.336,0,0,0-.667-.334,3.265,3.265,0,0,0-.882,0H7.978v4.766H9.241a4.765,4.765,0,0,0,1.191-.167,2.859,2.859,0,0,0,.786-.548,7,7,0,0,0,.477-.786A4.48,4.48,0,0,1,11.6,20.343Z" transform="translate(6.592 -15.407)"/>
        <path id="Path_2114" data-name="Path 2114" class="cls-2" d="M28.342,29.7v.167a.619.619,0,0,1-.238.167,3.456,3.456,0,0,1-.405,0H26.436a3.455,3.455,0,0,1-.405,0,.272.272,0,0,1-.238-.167.238.238,0,0,1,0-.167v-11.6h0l-4.17,11.533a.272.272,0,0,1-.167.238c-.167.071-.167,0-.238.167a3.455,3.455,0,0,1-.405,0H19.549a3.455,3.455,0,0,1-.405,0s-.238,0-.238-.167,0-.167-.167-.238l-4.051-11.58h0v11.7a.62.62,0,0,1-.238.167,3.457,3.457,0,0,1-.405,0H12.782a3.457,3.457,0,0,1-.405,0,.272.272,0,0,1-.238-.167.238.238,0,0,1,0-.167V17.02a1.1,1.1,0,0,1,.31-.882,1.215,1.215,0,0,1,.786-.31h1.906a2.979,2.979,0,0,1,.882,0l.643.238.477.477a8.245,8.245,0,0,1,.31.786l3.074,8.53h0l3.217-8.34a8.247,8.247,0,0,1,.31-.786.81.81,0,0,1,.405-.477,1.287,1.287,0,0,1,.548-.31,2.192,2.192,0,0,1,.715,0H28.1a1.1,1.1,0,0,1,.31.238,1.739,1.739,0,0,1,.238.405,1,1,0,0,1,0,.477V29.721Z" transform="translate(16.728 -15.397)"/>
        <path id="Path_2115" data-name="Path 2115" class="cls-2" d="M28.625,28.96v.858a.167.167,0,0,1-.167.167H21.143a.905.905,0,0,1-.643-.238.977.977,0,0,1-.238-.715V16.783a.977.977,0,0,1,.238-.715.905.905,0,0,1,.643-.238h7.315l.167.167c.167.167,0,.238,0,.31v1.43a.167.167,0,0,1-.167.167H23.073v3.5h4.456l.167.167v1.739a.167.167,0,0,1-.167.167H23.073v3.979h5.266l.167.167v.31A1.763,1.763,0,0,1,28.625,28.96Z" transform="translate(27.978 -15.351)"/>
        <path id="Path_2116" data-name="Path 2116" class="cls-2" d="M36.666,22.8a10.58,10.58,0,0,1-.477,3.336,5.7,5.7,0,0,1-1.43,2.383,5.957,5.957,0,0,1-2.383,1.263,12.581,12.581,0,0,1-3.264.381h-3.36a.905.905,0,0,1-.643-.238.977.977,0,0,1-.238-.715V16.794a.977.977,0,0,1,.238-.715.905.905,0,0,1,.643-.238h3.67a10.055,10.055,0,0,1,3.264.477A5.79,5.79,0,0,1,34.9,17.676a4.98,4.98,0,0,1,1.358,2.145A10.532,10.532,0,0,1,36.666,22.8Zm-3.026,0a7.84,7.84,0,0,0-.238-1.906,3.455,3.455,0,0,0-.786-1.525,3.6,3.6,0,0,0-1.358-1.048,5.552,5.552,0,0,0-2.145-.334h-1.43v9.7h1.6a4.98,4.98,0,0,0,2-.31,2.812,2.812,0,0,0,1.358-.953,3.455,3.455,0,0,0,.81-1.5,8.864,8.864,0,0,0,.191-2.049Z" transform="translate(34.352 -15.338)"/>
        <path id="Path_2117" data-name="Path 2117" class="cls-2" d="M33.668,29.71v.167a.272.272,0,0,0-.238.167,2.811,2.811,0,0,1-.477,0H31.047c-.167,0-.167,0-.238-.167a.238.238,0,0,1,0-.167V16.033a.272.272,0,0,0,.238-.167,2.811,2.811,0,0,1,.477,0H33.43c.167,0,.167,0,.238.167a.238.238,0,0,1,0,.167Z" transform="translate(42.545 -15.315)"/>
        <path id="Path_2118" data-name="Path 2118" class="cls-2" d="M45.712,29.116a2.383,2.383,0,0,1,.167.643v.31a.62.62,0,0,1-.405.167H43.258a.222.222,0,0,1-.238-.167.286.286,0,0,1,0-.238l-.953-2.859h-5.5l-.929,2.669v.238c0,.071-.167.167-.238.167H33.25a.62.62,0,0,1-.405-.167.477.477,0,0,1,0-.31,2.383,2.383,0,0,1,.167-.643L37.372,16.3c0-.167,0-.238.167-.31a.405.405,0,0,1,.31-.167,1.191,1.191,0,0,1,.548,0h2a1.549,1.549,0,0,1,.643,0c.167,0,.238,0,.31.167s0,.167.167.31ZM39.207,18.679h0l-2,6.052h4.051Z" transform="translate(45.346 -15.411)"/>
      </g>
    </g>
  </g>
</svg>
