<?xml version="1.0" encoding="utf-8"?>
<!-- Generator: Adobe Illustrator 22.0.0, SVG Export Plug-In . SVG Version: 6.00 Build 0)  -->
<svg version="1.1" xmlns="http://www.w3.org/2000/svg" xmlns:xlink="http://www.w3.org/1999/xlink" x="0px" y="0px"
	 viewBox="0 0 114.7 73.3" style="enable-background:new 0 0 114.7 73.3;" xml:space="preserve">
<style type="text/css">
	.st0{fill:#FF9F1C;stroke:#FF9F1C;stroke-width:0.7087;stroke-miterlimit:10;}
	.st1{fill:#FFFFFF;}
</style>
<g id="Layer_3">
	<path class="st0" d="M59.2,0.4c-12.3,0-22.4,10-22.4,22.4c0,12.3,10,22.4,22.4,22.4c12.3,0,22.4-10,22.4-22.4
		C81.6,10.4,71.6,0.4,59.2,0.4z M40.6,22.7c0-9.2,6.7-16.8,15.4-18.3c0.6-0.1,1.4,0.4,1.4,1.3v5.8c-1.2-0.8-2.7-1.2-4.2-1.2
		c-4.4,0-8,3.6-8,8c0,4.4,3.6,8,8,8c1,0,2.1-0.3,3-0.6l8.4-2.6C64.7,23,65,23,65.4,23c2.3,0,4.2,1.9,4.2,4.2s-1.9,4.2-4.2,4.2
		c-2.3,0-4.2-1.9-4.2-4.2l-2.7,0.8c0,0-1,0.4-1,1.7c0,0.3,0,10.2,0,10.2c0,0.9,0.4,1.2,0.6,1.4c-0.2,0-0.4-0.1-0.6-0.1
		C48,40.3,40.6,32.4,40.6,22.7z M61.1,40.1V34c1.2,0.8,2.7,1.2,4.2,1.2c4.4,0,8-3.6,8-8c0-4.4-3.6-8-8-8c-0.6,0-1.2,0.1-1.9,0.2
		l-8.6,2.7l-0.1,0v0c-0.5,0.2-1.1,0.3-1.6,0.3c-2.3,0-4.2-1.9-4.2-4.2c0-2.3,1.9-4.2,4.2-4.2c2.3,0,4.2,1.9,4.2,4.2l2.8-0.8
		c0,0,0.9-0.3,0.9-1.5c0-0.4,0-7,0-10.3c0-0.8-0.1-1.2-0.5-1.4l0.5,0.1c9.4,0.9,16.8,8.9,16.8,18.5c0,9.3-6.9,17-15.8,18.4
		C61.3,41.3,61.1,40.8,61.1,40.1z"/>
</g>
<g id="Layer_1">
	<g>
		<g>
			<path class="st1" d="M11.7,67.9c0,0.9-0.2,1.8-0.5,2.5c-0.4,0.7-0.8,1.3-1.4,1.8c-0.6,0.5-1.3,0.8-2.1,1.1
				c-0.8,0.2-1.7,0.4-2.6,0.4c-0.6,0-1.2-0.1-1.7-0.2c-0.5-0.1-1-0.2-1.4-0.4c-0.4-0.1-0.7-0.3-1-0.4c-0.3-0.2-0.5-0.3-0.6-0.4
				c-0.1-0.1-0.2-0.3-0.3-0.5C0,71.4,0,71.1,0,70.7c0-0.3,0-0.5,0-0.7c0-0.2,0-0.3,0.1-0.5c0-0.1,0.1-0.2,0.2-0.3
				c0.1-0.1,0.1-0.1,0.2-0.1c0.1,0,0.3,0.1,0.5,0.2c0.2,0.2,0.5,0.3,0.9,0.5c0.4,0.2,0.8,0.4,1.3,0.5c0.5,0.2,1.1,0.2,1.8,0.2
				c0.4,0,0.8-0.1,1.2-0.2c0.4-0.1,0.6-0.3,0.9-0.4c0.2-0.2,0.4-0.4,0.6-0.7c0.1-0.3,0.2-0.6,0.2-1c0-0.4-0.1-0.8-0.3-1
				c-0.2-0.3-0.5-0.5-0.9-0.8c-0.4-0.2-0.8-0.4-1.2-0.6c-0.5-0.2-0.9-0.4-1.4-0.6c-0.5-0.2-0.9-0.5-1.4-0.8c-0.5-0.3-0.9-0.6-1.2-1
				c-0.4-0.4-0.6-0.9-0.9-1.4c-0.2-0.5-0.3-1.2-0.3-1.9c0-0.9,0.2-1.6,0.5-2.3c0.3-0.6,0.7-1.2,1.3-1.6c0.5-0.4,1.2-0.7,1.9-1
				C4.7,55.1,5.5,55,6.3,55c0.4,0,0.8,0,1.3,0.1c0.4,0.1,0.8,0.2,1.2,0.3c0.4,0.1,0.7,0.2,1,0.4c0.3,0.1,0.5,0.3,0.6,0.3
				c0.1,0.1,0.2,0.2,0.2,0.2c0,0.1,0.1,0.1,0.1,0.3c0,0.1,0,0.2,0,0.4c0,0.2,0,0.4,0,0.6c0,0.3,0,0.5,0,0.7c0,0.2,0,0.3-0.1,0.5
				c0,0.1-0.1,0.2-0.1,0.3c-0.1,0.1-0.1,0.1-0.2,0.1c-0.1,0-0.3-0.1-0.5-0.2c-0.2-0.1-0.5-0.3-0.8-0.4c-0.3-0.2-0.7-0.3-1.1-0.4
				c-0.4-0.1-0.9-0.2-1.4-0.2c-0.4,0-0.7,0-1,0.1c-0.3,0.1-0.5,0.2-0.7,0.4c-0.2,0.2-0.3,0.4-0.4,0.6C4,59.2,4,59.5,4,59.8
				c0,0.4,0.1,0.7,0.3,1c0.2,0.3,0.5,0.5,0.9,0.8C5.6,61.8,6,62,6.4,62.2c0.5,0.2,0.9,0.4,1.4,0.6c0.5,0.2,0.9,0.5,1.4,0.8
				c0.5,0.3,0.9,0.6,1.2,1c0.4,0.4,0.6,0.9,0.9,1.4C11.6,66.5,11.7,67.1,11.7,67.9z"/>
			<path class="st1" d="M26.7,60.8c0,1-0.2,1.9-0.5,2.7c-0.3,0.8-0.8,1.4-1.4,2c-0.6,0.5-1.3,0.9-2.2,1.2c-0.9,0.3-1.9,0.4-3.1,0.4
				h-1.5v5.7c0,0.1,0,0.2-0.1,0.2c-0.1,0.1-0.2,0.1-0.3,0.2c-0.1,0-0.3,0.1-0.6,0.1c-0.2,0-0.5,0-0.9,0c-0.4,0-0.6,0-0.9,0
				c-0.2,0-0.4-0.1-0.6-0.1c-0.1,0-0.2-0.1-0.3-0.2c-0.1-0.1-0.1-0.2-0.1-0.2V56.6c0-0.4,0.1-0.8,0.3-1c0.2-0.2,0.5-0.3,0.9-0.3h4.2
				c0.4,0,0.8,0,1.2,0c0.4,0,0.8,0.1,1.4,0.2c0.5,0.1,1.1,0.3,1.6,0.6c0.5,0.3,1,0.6,1.4,1.1c0.4,0.4,0.7,0.9,0.9,1.5
				C26.6,59.4,26.7,60,26.7,60.8z M22.9,61c0-0.6-0.1-1.1-0.3-1.5c-0.2-0.4-0.5-0.7-0.8-0.9c-0.3-0.2-0.7-0.3-1-0.4
				c-0.4-0.1-0.7-0.1-1.1-0.1h-1.5v6.1h1.6c0.6,0,1.1-0.1,1.5-0.2c0.4-0.2,0.7-0.4,1-0.7c0.2-0.3,0.4-0.6,0.6-1
				C22.8,61.9,22.9,61.5,22.9,61z"/>
			<path class="st1" d="M56.7,72.7c0,0.1,0,0.2-0.1,0.2c-0.1,0.1-0.1,0.1-0.3,0.2c-0.1,0-0.3,0.1-0.5,0.1c-0.2,0-0.5,0-0.8,0
				c-0.3,0-0.6,0-0.8,0c-0.2,0-0.4-0.1-0.5-0.1c-0.1,0-0.2-0.1-0.3-0.2c-0.1-0.1-0.1-0.2-0.1-0.2V58.2h0l-5.2,14.5
				c0,0.1-0.1,0.2-0.2,0.3c-0.1,0.1-0.2,0.1-0.3,0.2c-0.1,0-0.3,0.1-0.5,0.1c-0.2,0-0.5,0-0.8,0s-0.6,0-0.8,0
				c-0.2,0-0.4-0.1-0.5-0.1c-0.1-0.1-0.3-0.1-0.3-0.2c-0.1-0.1-0.1-0.2-0.2-0.3l-5-14.5h0v14.5c0,0.1,0,0.2-0.1,0.2
				c-0.1,0.1-0.1,0.1-0.3,0.2c-0.1,0-0.3,0.1-0.5,0.1c-0.2,0-0.5,0-0.8,0c-0.3,0-0.6,0-0.8,0c-0.2,0-0.4-0.1-0.5-0.1
				C36.1,73.1,36,73,36,73c-0.1-0.1-0.1-0.2-0.1-0.2V56.8c0-0.5,0.1-0.8,0.4-1.1c0.2-0.2,0.6-0.4,1-0.4h2.4c0.4,0,0.8,0,1.1,0.1
				c0.3,0.1,0.6,0.2,0.8,0.3c0.2,0.2,0.4,0.4,0.6,0.6c0.1,0.3,0.3,0.6,0.4,1L46.3,68h0.1l4-10.6c0.1-0.4,0.3-0.7,0.4-1
				c0.1-0.3,0.3-0.5,0.5-0.6c0.2-0.2,0.4-0.3,0.7-0.4c0.3-0.1,0.6-0.1,0.9-0.1h2.4c0.3,0,0.5,0,0.6,0.1c0.2,0.1,0.3,0.2,0.4,0.3
				c0.1,0.1,0.2,0.3,0.3,0.5c0.1,0.2,0.1,0.4,0.1,0.6V72.7z"/>
			<path class="st1" d="M71.2,71.8c0,0.3,0,0.5,0,0.7c0,0.2-0.1,0.3-0.1,0.4c0,0.1-0.1,0.2-0.2,0.2c-0.1,0.1-0.1,0.1-0.2,0.1h-9
				c-0.3,0-0.6-0.1-0.8-0.3c-0.2-0.2-0.3-0.5-0.3-0.9V56.5c0-0.4,0.1-0.7,0.3-0.9c0.2-0.2,0.5-0.3,0.8-0.3h8.9c0.1,0,0.2,0,0.2,0.1
				c0.1,0,0.1,0.1,0.2,0.2c0,0.1,0.1,0.3,0.1,0.4c0,0.2,0,0.4,0,0.7c0,0.3,0,0.5,0,0.7c0,0.2-0.1,0.3-0.1,0.4c0,0.1-0.1,0.2-0.2,0.2
				c-0.1,0.1-0.1,0.1-0.2,0.1h-6.4v4.4h5.4c0.1,0,0.2,0,0.2,0.1c0.1,0.1,0.1,0.1,0.2,0.2c0,0.1,0.1,0.2,0.1,0.4c0,0.2,0,0.4,0,0.7
				c0,0.3,0,0.5,0,0.7c0,0.2-0.1,0.3-0.1,0.4c0,0.1-0.1,0.2-0.2,0.2c-0.1,0-0.1,0.1-0.2,0.1h-5.4v5h6.4c0.1,0,0.2,0,0.2,0.1
				c0.1,0.1,0.1,0.1,0.2,0.2c0,0.1,0.1,0.3,0.1,0.4C71.2,71.3,71.2,71.5,71.2,71.8z"/>
			<path class="st1" d="M89.3,64c0,1.6-0.2,3-0.6,4.2c-0.4,1.2-1,2.1-1.8,2.9c-0.8,0.7-1.8,1.3-2.9,1.6c-1.1,0.3-2.5,0.5-4.1,0.5
				h-4.3c-0.3,0-0.6-0.1-0.8-0.3c-0.2-0.2-0.3-0.5-0.3-0.9V56.5c0-0.4,0.1-0.7,0.3-0.9c0.2-0.2,0.5-0.3,0.8-0.3h4.6
				c1.6,0,2.9,0.2,4.1,0.6c1.1,0.4,2,0.9,2.8,1.7c0.8,0.7,1.3,1.6,1.7,2.7C89.1,61.3,89.3,62.6,89.3,64z M85.5,64.1
				c0-0.8-0.1-1.6-0.3-2.4c-0.2-0.7-0.5-1.4-1-1.9c-0.4-0.5-1-1-1.7-1.3c-0.7-0.3-1.6-0.4-2.7-0.4h-1.8v12.2H80c1,0,1.8-0.1,2.5-0.4
				c0.7-0.3,1.3-0.6,1.7-1.2c0.5-0.5,0.8-1.2,1-1.9C85.4,66.1,85.5,65.2,85.5,64.1z"/>
			<path class="st1" d="M95.9,72.7c0,0.1,0,0.2-0.1,0.2c-0.1,0.1-0.2,0.1-0.3,0.2c-0.1,0-0.3,0.1-0.6,0.1c-0.2,0-0.5,0-0.9,0
				c-0.3,0-0.6,0-0.9,0c-0.2,0-0.4-0.1-0.6-0.1c-0.1,0-0.2-0.1-0.3-0.2c-0.1-0.1-0.1-0.2-0.1-0.2V55.8c0-0.1,0-0.2,0.1-0.2
				c0.1-0.1,0.2-0.1,0.3-0.2c0.1,0,0.3-0.1,0.6-0.1c0.2,0,0.5,0,0.9,0c0.4,0,0.7,0,0.9,0c0.2,0,0.4,0.1,0.6,0.1
				c0.1,0,0.2,0.1,0.3,0.2c0.1,0.1,0.1,0.2,0.1,0.2V72.7z"/>
			<path class="st1" d="M114.5,71.9c0.1,0.3,0.2,0.6,0.2,0.8c0,0.2,0,0.3-0.1,0.4c-0.1,0.1-0.3,0.2-0.5,0.2c-0.3,0-0.6,0-1.1,0
				c-0.5,0-0.8,0-1.1,0c-0.3,0-0.5,0-0.6-0.1c-0.1,0-0.2-0.1-0.3-0.2c-0.1-0.1-0.1-0.2-0.1-0.3l-1.2-3.6h-6.7l-1.1,3.5
				c0,0.1-0.1,0.2-0.1,0.3c-0.1,0.1-0.2,0.2-0.3,0.2c-0.1,0.1-0.3,0.1-0.6,0.1c-0.2,0-0.6,0-1,0c-0.4,0-0.8,0-1,0
				c-0.2,0-0.4-0.1-0.5-0.2c-0.1-0.1-0.1-0.3-0.1-0.4c0-0.2,0.1-0.5,0.2-0.8L104,56c0.1-0.2,0.1-0.3,0.2-0.4
				c0.1-0.1,0.2-0.2,0.4-0.2c0.2-0.1,0.4-0.1,0.7-0.1c0.3,0,0.7,0,1.1,0c0.5,0,1,0,1.3,0c0.3,0,0.6,0,0.8,0.1
				c0.2,0.1,0.3,0.1,0.4,0.2c0.1,0.1,0.1,0.2,0.2,0.4L114.5,71.9z M106.3,58.7L106.3,58.7l-2.5,7.6h5.1L106.3,58.7z"/>
		</g>
	</g>
	<g>
	</g>
	<g>
	</g>
	<g>
	</g>
	<g>
	</g>
	<g>
	</g>
	<g>
	</g>
</g>
</svg>
